<?xml version="1.0" encoding="utf-8"?>
<!-- Generator: Adobe Illustrator 16.0.0, SVG Export Plug-In . SVG Version: 6.00 Build 0)  -->
<!DOCTYPE svg PUBLIC "-//W3C//DTD SVG 1.1//EN" "http://www.w3.org/Graphics/SVG/1.1/DTD/svg11.dtd">
<svg version="1.1" id="Layer_1" xmlns="http://www.w3.org/2000/svg" xmlns:xlink="http://www.w3.org/1999/xlink" x="0px" y="0px"
	 width="141.73px" height="141.73px" viewBox="0 0 141.73 141.73" enable-background="new 0 0 141.73 141.73" xml:space="preserve">
<path d="M137.479,42.521c0,3.914-2.521,7.086-5.635,7.086H9.888c-3.112,0-5.636-3.172-5.636-7.086l0,0
	c0-3.914,2.523-7.086,5.636-7.086h121.957C134.958,35.434,137.479,38.606,137.479,42.521L137.479,42.521z"/>
<path d="M137.479,70.865c0,3.914-2.521,7.086-5.635,7.086H9.888c-3.112,0-5.636-3.172-5.636-7.086l0,0
	c0-3.914,2.523-7.086,5.636-7.086h121.957C134.958,63.779,137.479,66.952,137.479,70.865L137.479,70.865z"/>
<path d="M137.479,99.211c0,3.914-2.521,7.086-5.635,7.086H9.889c-3.112,0-5.636-3.172-5.636-7.086l0,0
	c0-3.914,2.523-7.086,5.636-7.086h121.956C134.958,92.125,137.479,95.297,137.479,99.211L137.479,99.211z"/>
</svg>
