<?xml version="1.0" encoding="utf-8"?>
<!-- Generator: Adobe Illustrator 16.0.0, SVG Export Plug-In . SVG Version: 6.00 Build 0)  -->
<!DOCTYPE svg PUBLIC "-//W3C//DTD SVG 1.1//EN" "http://www.w3.org/Graphics/SVG/1.1/DTD/svg11.dtd">
<svg version="1.1" id="Layer_1" xmlns="http://www.w3.org/2000/svg" xmlns:xlink="http://www.w3.org/1999/xlink" x="0px" y="0px"
	 width="141.73px" height="141.73px" viewBox="0 0 141.73 141.73" enable-background="new 0 0 141.73 141.73" xml:space="preserve">
<g>
	<circle fill="#FFFFFF" cx="70.866" cy="70.865" r="70.866"/>
	<g>
		<path fill="#010101" d="M102.963,80.989c-1.317,0-2.007-1.038-2.007-2.063c0-0.532,0.178-1.032,0.499-1.407
			c0.37-0.431,0.892-0.659,1.508-0.659c1.317,0,2.006,1.039,2.006,2.064c0,0.532-0.177,1.031-0.498,1.406
			C104.101,80.761,103.579,80.989,102.963,80.989z M102.963,77.611c-0.866,0-1.255,0.66-1.255,1.314
			c0,0.652,0.389,1.312,1.255,1.312c0.396,0,0.711-0.134,0.938-0.397c0.201-0.234,0.316-0.568,0.316-0.916
			C104.217,78.271,103.829,77.611,102.963,77.611z"/>
		<path fill="#010101" d="M100.519,47.351c-0.617,0-1.139-0.228-1.508-0.658c-0.322-0.374-0.499-0.873-0.499-1.405
			c0-1.026,0.689-2.065,2.007-2.065c0.617,0,1.139,0.228,1.509,0.658c0.32,0.374,0.498,0.873,0.498,1.405
			C102.525,46.312,101.836,47.351,100.519,47.351z M100.519,43.974c-0.867,0-1.255,0.66-1.255,1.313
			c0,0.348,0.116,0.681,0.317,0.915c0.226,0.263,0.541,0.396,0.938,0.396c0.866,0,1.255-0.66,1.255-1.313
			S101.385,43.974,100.519,43.974z"/>
		<path fill="#010101" d="M61.073,42.438h19.586c0.902,0,1.635-0.731,1.635-1.632c0,0,0.178-3.019-0.532-3.09
			c-7.406-0.76-15.838-0.088-21.564-0.072c-0.814,0.002-0.756,3.162-0.756,3.162C59.441,41.706,60.17,42.438,61.073,42.438z"/>
		<path fill="#010101" d="M72.133,81.288h-2.532c-0.608,0-1.104-0.491-1.104-1.096v-2.536c0-0.604,0.495-1.095,1.104-1.095h2.532
			c0.604,0,1.096,0.491,1.096,1.095v2.536C73.229,80.797,72.736,81.288,72.133,81.288z M69.601,77.313
			c-0.193,0-0.352,0.153-0.352,0.343v2.536c0,0.189,0.158,0.344,0.352,0.344h2.532c0.189,0,0.344-0.154,0.344-0.344v-2.536
			c0-0.189-0.154-0.343-0.344-0.343H69.601z"/>
		<path fill="#010101" d="M42.302,78.423c4.089,0.083,8.178,0.142,12.271,0.151c4.08,0.005,8.193-0.133,12.267,0.073
			c0.344,0.018,0.382,0.636,0.049,0.648c-4.172,0.2-8.239,0.108-12.316,0.112c-4.091,0.008-8.182-0.027-12.271-0.116
			C41.632,79.277,41.63,78.407,42.302,78.423z"/>
		<path fill="#010101" d="M99.387,78.423c-4.09,0.083-8.179,0.142-12.271,0.151c-4.08,0.005-8.193-0.133-12.268,0.073
			c-0.344,0.018-0.382,0.636-0.048,0.648c4.171,0.2,8.238,0.108,12.315,0.112c4.092,0.008,8.182-0.027,12.271-0.116
			C100.057,79.277,100.059,78.407,99.387,78.423z"/>
		<path fill="#010101" d="M38.767,80.989c-1.318,0-2.007-1.039-2.007-2.065c0-0.532,0.177-1.031,0.499-1.405
			c0.37-0.432,0.892-0.659,1.509-0.659c1.317,0,2.007,1.04,2.007,2.066c0,0.532-0.177,1.031-0.498,1.405
			C39.905,80.762,39.384,80.989,38.767,80.989z M38.767,77.611c-0.396,0-0.712,0.134-0.938,0.396
			c-0.202,0.234-0.317,0.568-0.317,0.916c0,0.653,0.388,1.313,1.255,1.313c0.397,0,0.712-0.134,0.938-0.396
			c0.201-0.234,0.316-0.568,0.316-0.915C40.021,78.271,39.634,77.611,38.767,77.611z"/>
		<path fill="#010101" d="M41.21,47.351c-1.318,0-2.007-1.039-2.007-2.065c0-0.532,0.177-1.031,0.498-1.405
			c0.37-0.431,0.892-0.658,1.509-0.658c1.317,0,2.007,1.039,2.007,2.065c0,0.532-0.177,1.031-0.499,1.405
			C42.349,47.123,41.827,47.351,41.21,47.351z M41.21,43.974c-0.397,0-0.712,0.134-0.938,0.396
			c-0.201,0.234-0.316,0.568-0.316,0.915c0,0.653,0.388,1.313,1.255,1.313c0.396,0,0.712-0.134,0.938-0.396
			c0.201-0.234,0.316-0.567,0.316-0.915C42.465,44.634,42.077,43.974,41.21,43.974z"/>
		<path d="M66.768,76.481c-14.299,0-25.933-12.364-25.933-27.562c0-0.208,0.168-0.376,0.376-0.376c0.208,0,0.375,0.168,0.375,0.376
			c0,14.783,11.297,26.81,25.182,26.81c0.208,0,0.376,0.169,0.376,0.376C67.144,76.313,66.976,76.481,66.768,76.481z"/>
		<path d="M74.958,76.481c-0.208,0-0.376-0.168-0.376-0.376c0-0.207,0.168-0.376,0.376-0.376c13.887,0,25.185-12.026,25.185-26.81
			c0-0.208,0.168-0.376,0.376-0.376s0.376,0.168,0.376,0.376C100.895,64.117,89.259,76.481,74.958,76.481z"/>
		<path d="M83.35,55.635L78.622,44.6c-0.247-0.581-0.823-0.956-1.449-0.956H64.56c-0.633,0-1.202,0.375-1.451,0.956l-4.729,11.035
			c-0.254,0.592-0.121,1.28,0.333,1.736c0.076,0.076,7.662,7.746,10.657,16.727c0.123,0.365,0.356,0.707,0.708,0.86
			c0.185,0.081,0.591,0.196,0.787,0.196c0.197,0,0.605-0.115,0.787-0.196c0.348-0.153,0.585-0.495,0.708-0.859
			c2.991-8.981,10.578-16.651,10.654-16.728C83.471,56.916,83.605,56.227,83.35,55.635z M70.88,73.352
			c-0.762,0.464-0.513-3.979-0.513-4.787c-0.001-2.853,0.005-5.697,0.017-8.544c0.001-0.427,0.08-0.936,0.251-1.107
			c0.201-0.196,0.325-0.232,0.523,0.036c0.165,0.215,0.287,0.698,0.285,1.143c-0.021,2.682-0.015,5.374-0.062,8.057
			C71.359,69.371,71.521,72.969,70.88,73.352z"/>
		<g>
			<path d="M17.981,103.474c-0.568,0-1.103-0.176-1.604-0.526c-0.568-0.451-0.99-1.02-1.265-1.704
				c-0.276-0.686-0.481-1.388-0.614-2.105c-0.218-1.069-0.326-2.147-0.326-3.233c0-0.435,0.016-0.86,0.05-1.278
				c0.167-1.62,0.61-3.166,1.329-4.637c0.651-1.437,1.621-2.573,2.907-3.409c0.551-0.301,1.128-0.451,1.729-0.451
				c0.417,0,0.835,0.075,1.253,0.226c0.534,0.218,0.897,0.573,1.09,1.065c0.192,0.493,0.289,1.007,0.289,1.542l-0.025,0.501
				c0,0.117-0.025,0.226-0.075,0.326c-0.05,0.1-0.142,0.175-0.275,0.226c-0.05,0.017-0.101,0.024-0.15,0.024
				c-0.151,0-0.259-0.1-0.326-0.301l-0.025-0.226c0-0.116,0.008-0.226,0.025-0.325c0.017-0.117,0.025-0.234,0.025-0.352v-0.1
				c0-0.184-0.042-0.359-0.125-0.526c0-0.017-0.009-0.033-0.025-0.051c-0.134-0.434-0.443-0.701-0.928-0.802
				c-0.1-0.017-0.192-0.025-0.275-0.025c-0.251,0-0.501,0.042-0.752,0.126c-0.418,0.15-0.786,0.409-1.103,0.776
				c-0.601,0.819-1.036,1.729-1.303,2.732c-0.017,0.066-0.042,0.142-0.075,0.226c-0.351,1.137-0.593,2.298-0.727,3.483
				c-0.117,0.902-0.176,1.805-0.176,2.707c0,0.618,0.046,1.232,0.138,1.843c0.091,0.609,0.254,1.207,0.488,1.791
				c0.151,0.368,0.334,0.689,0.552,0.966c0.217,0.275,0.501,0.413,0.852,0.413c0.201,0,0.417-0.059,0.652-0.175
				c0.551-0.285,0.96-0.723,1.228-1.316c0.267-0.593,0.476-1.182,0.626-1.767c0.017-0.034,0.025-0.075,0.025-0.126
				c0.2-0.701,0.359-1.411,0.476-2.13c0.066-0.468,0.117-0.936,0.15-1.403c0.033-0.251,0.058-0.493,0.075-0.728
				c-0.284-0.033-0.61-0.05-0.977-0.05h-0.276c-0.468,0-0.927-0.025-1.378-0.075c-0.1-0.017-0.184-0.063-0.251-0.138
				c-0.066-0.075-0.1-0.163-0.1-0.264c0-0.116,0.067-0.226,0.201-0.325c0.05-0.033,0.104-0.055,0.163-0.063
				c0.058-0.009,0.112-0.013,0.163-0.013c0.651,0,1.294,0.017,1.93,0.05c0.033,0,0.058,0,0.075,0c0.05,0,0.092,0,0.125,0
				c0.3,0,0.597,0.037,0.889,0.112c0.292,0.075,0.439,0.297,0.439,0.665v0.024c-0.034,0.585-0.1,1.162-0.2,1.729
				c-0.018,0.101-0.034,0.2-0.051,0.301c-0.1,0.686-0.225,1.354-0.376,2.005c-0.2,1.003-0.56,1.98-1.077,2.933
				c-0.519,0.953-1.337,1.546-2.457,1.779C18.391,103.457,18.182,103.474,17.981,103.474z"/>
			<path d="M26.377,103.874c-0.418,0-0.794-0.142-1.127-0.426c-0.268-0.367-0.418-0.785-0.452-1.253c0-0.018,0-0.034,0-0.051
				c-0.034-0.15-0.05-0.3-0.05-0.451c-0.034-0.434-0.05-0.885-0.05-1.353c0-1.003,0.05-2.006,0.15-3.008c0-0.066,0-0.142,0-0.226
				c0.034-0.752,0.1-1.521,0.2-2.306c0.017-0.117,0.034-0.234,0.051-0.352c0.016-0.316,0.066-0.617,0.15-0.902
				c0.083-0.283,0.259-0.526,0.526-0.727c0.301-0.251,0.644-0.376,1.028-0.376c0.133,0,0.276,0.025,0.426,0.075
				c0.184,0.067,0.309,0.185,0.376,0.351c0.066,0.168,0.1,0.343,0.1,0.526l-0.05,0.451c-0.134,0.803-0.23,1.45-0.288,1.942
				c-0.059,0.493-0.138,1.149-0.238,1.968c-0.017,0.134-0.034,0.322-0.05,0.563c-0.017,0.243-0.025,0.481-0.025,0.715
				c0,0.218-0.008,0.393-0.025,0.526c0.15-0.451,0.275-0.811,0.376-1.078c0.1-0.267,0.217-0.626,0.351-1.077
				c0.066-0.184,0.125-0.376,0.175-0.576c0.251-0.886,0.589-1.78,1.016-2.683c0.426-0.902,1.023-1.537,1.792-1.904
				c0.184-0.067,0.376-0.101,0.576-0.101c0.301,0,0.593,0.084,0.877,0.251c0.351,0.234,0.597,0.526,0.739,0.877
				c0.142,0.351,0.229,0.727,0.263,1.128l0.025,0.326c0,0.2-0.042,0.4-0.125,0.602c-0.084,0.134-0.201,0.225-0.351,0.275
				c-0.151,0.05-0.301,0.075-0.452,0.075c-0.134-0.017-0.275-0.046-0.426-0.088s-0.276-0.121-0.376-0.238
				c-0.134-0.2-0.209-0.434-0.226-0.701c-0.017-0.101-0.034-0.201-0.05-0.301c0-0.017,0-0.033,0-0.051
				c-0.017-0.116-0.046-0.238-0.088-0.363s-0.112-0.238-0.213-0.338c-0.067-0.067-0.134-0.101-0.201-0.101
				c-0.066,0-0.134,0.025-0.2,0.075c-0.067,0.05-0.125,0.108-0.176,0.176c-0.351,0.435-0.618,0.927-0.802,1.479
				c-0.017,0.033-0.034,0.075-0.05,0.125c-0.084,0.218-0.226,0.576-0.427,1.078c-0.2,0.501-0.376,0.952-0.526,1.354
				c-0.101,0.317-0.184,0.576-0.251,0.776c-0.05,0.168-0.104,0.339-0.163,0.514c-0.059,0.176-0.137,0.414-0.238,0.715
				c-0.05,0.2-0.109,0.401-0.175,0.602c-0.134,0.451-0.251,0.919-0.351,1.403v1.379c0,0.083-0.009,0.162-0.025,0.238
				c-0.017,0.075-0.042,0.129-0.075,0.162C27.021,103.774,26.729,103.874,26.377,103.874z"/>
			<path d="M41.566,104.351h-0.125c-0.117,0-0.251-0.017-0.401-0.05c-0.251-0.051-0.485-0.15-0.702-0.301s-0.359-0.326-0.426-0.526
				c-0.15-0.769-0.226-1.529-0.226-2.281v-0.451l0.05-2.481l-1.128,2.983c-0.167,0.484-0.422,0.939-0.764,1.365
				c-0.343,0.427-0.79,0.64-1.341,0.64c-0.301,0-0.635-0.092-1.002-0.275c-0.568-0.352-0.995-0.845-1.278-1.479
				c-0.335-0.785-0.501-1.612-0.501-2.481c0-0.936,0.175-1.838,0.526-2.707c0.351-0.868,0.856-1.582,1.516-2.143
				c0.66-0.56,1.458-0.84,2.394-0.84c0.602,0,1.056,0.075,1.366,0.226c0.309,0.15,0.547,0.301,0.714,0.451
				c0,0.017,0.008,0.025,0.025,0.025c0.066-0.451,0.133-0.806,0.2-1.065c0.066-0.259,0.133-0.48,0.201-0.664
				c0.167-0.351,0.434-0.593,0.802-0.727c0.117-0.033,0.25-0.051,0.401-0.051c0.234,0,0.451,0.042,0.652,0.126
				c0.234,0.1,0.405,0.209,0.514,0.325c0.109,0.117,0.163,0.293,0.163,0.526c0,0.469-0.042,0.949-0.125,1.441
				c-0.083,0.493-0.184,0.982-0.3,1.467c-0.101,0.435-0.184,0.86-0.251,1.277l-0.201,1.354c-0.167,1.32-0.25,2.641-0.25,3.96
				l0.025,1.128c0,0.101-0.004,0.213-0.012,0.339c-0.009,0.125-0.021,0.213-0.038,0.264c0,0.016-0.009,0.041-0.025,0.074
				c-0.017,0.134-0.059,0.251-0.125,0.352C41.825,104.25,41.716,104.317,41.566,104.351z M36.779,102.221
				c0.267,0,0.501-0.159,0.702-0.477c0.634-1.37,1.286-2.966,1.955-4.787c0.15-0.385,0.292-0.761,0.426-1.128
				c0.066-0.134,0.1-0.292,0.1-0.477c0-0.15-0.054-0.321-0.163-0.514c-0.109-0.191-0.322-0.288-0.639-0.288
				c-0.268,0-0.552,0.079-0.853,0.238c-0.3,0.159-0.526,0.321-0.676,0.488c-0.969,0.886-1.538,1.964-1.705,3.233
				c-0.134,0.535-0.2,1.111-0.2,1.729c0,0.501,0.091,0.957,0.275,1.366C36.186,102.016,36.445,102.221,36.779,102.221z"/>
			<path d="M52.444,103.949h-0.125c-0.468-0.05-0.786-0.196-0.953-0.438s-0.275-0.572-0.326-0.99c-0.1-0.635-0.15-1.353-0.15-2.155
				c0-0.283,0.008-0.56,0.025-0.827c0.016-0.551,0.05-1.077,0.1-1.579c0.083-0.701,0.125-1.437,0.125-2.205
				c0-0.083-0.009-0.171-0.025-0.264c-0.017-0.091-0.05-0.171-0.1-0.238c-0.1-0.116-0.201-0.175-0.301-0.175
				c-0.167,0-0.334,0.117-0.501,0.351c-0.167,0.234-0.322,0.497-0.463,0.79c-0.142,0.292-0.255,0.538-0.338,0.739
				c-0.034,0.084-0.059,0.15-0.075,0.2c-0.034,0.101-0.092,0.242-0.176,0.427c-0.134,0.351-0.292,0.769-0.476,1.253
				c-0.184,0.484-0.351,0.932-0.501,1.341s-0.243,0.681-0.276,0.814l-0.301,1.152v0.627c0,0.117-0.013,0.226-0.038,0.326
				c-0.025,0.1-0.088,0.191-0.188,0.275c-0.217,0.167-0.468,0.251-0.752,0.251c-0.417,0-0.793-0.143-1.128-0.427
				c-0.268-0.367-0.417-0.793-0.451-1.277v-0.025c-0.017-0.083-0.029-0.176-0.038-0.275c-0.008-0.101-0.012-0.251-0.012-0.451
				c-0.034-0.435-0.05-0.886-0.05-1.354c0-1.086,0.05-2.172,0.15-3.259c0.033-0.752,0.1-1.521,0.201-2.306
				c0.016-0.101,0.033-0.2,0.05-0.301c0.017-0.268,0.059-0.534,0.125-0.802c0.033-0.234,0.088-0.451,0.163-0.652
				c0.075-0.2,0.221-0.367,0.438-0.501c0.234-0.116,0.484-0.175,0.752-0.175c0.233,0,0.451,0.05,0.651,0.149
				c0.184,0,0.301,0.101,0.351,0.301c0.05,0.201,0.075,0.385,0.075,0.552l-0.025,0.401c-0.067,0.568-0.134,1.236-0.201,2.005
				s-0.121,1.471-0.163,2.105c-0.042,0.635-0.071,1.027-0.087,1.178l0.025,1.229c0.351-0.886,0.702-1.763,1.053-2.632
				c0.25-0.651,0.409-1.061,0.476-1.229c0.017-0.05,0.042-0.108,0.075-0.175c0.167-0.385,0.351-0.765,0.551-1.141
				c0.201-0.376,0.452-0.689,0.752-0.94c0.301-0.25,0.677-0.376,1.128-0.376c0.785,0.018,1.362,0.359,1.729,1.028
				c0.184,0.418,0.275,0.868,0.275,1.353v0.376c-0.017,0.669-0.066,1.338-0.15,2.006c-0.017,0.334-0.042,0.668-0.075,1.002
				c0,0.034,0,0.075,0,0.126c-0.017,0.233-0.038,0.526-0.063,0.877c-0.025,0.351-0.038,0.626-0.038,0.827v0.125
				c0,0.552,0.025,1.086,0.075,1.604v0.025c0.033,0.166,0.05,0.342,0.05,0.525c0,0.218-0.05,0.409-0.15,0.577
				C52.945,103.866,52.711,103.949,52.444,103.949z"/>
			<path d="M62.694,104.376c-0.15,0-0.325-0.018-0.526-0.051c-0.267-0.05-0.51-0.146-0.727-0.288
				c-0.217-0.142-0.351-0.313-0.401-0.514c-0.167-0.651-0.251-1.354-0.251-2.105l-0.025-0.401c0-0.868,0.05-1.721,0.15-2.556
				l-1.078,2.807c-0.167,0.485-0.418,0.94-0.752,1.366c-0.334,0.426-0.777,0.639-1.328,0.639c-0.301,0-0.635-0.075-1.003-0.226
				c-0.585-0.367-1.019-0.852-1.303-1.453c-0.351-0.752-0.526-1.57-0.526-2.456v-0.075c0-1.37,0.376-2.648,1.128-3.835
				s1.83-1.821,3.233-1.905c0.602,0,1.057,0.075,1.366,0.226s0.539,0.301,0.689,0.451c0.016,0.017,0.033,0.025,0.05,0.025
				c0-0.033,0.008-0.083,0.025-0.15c0.017-0.101,0.038-0.204,0.063-0.313c0.025-0.108,0.047-0.204,0.063-0.288
				c0.066-0.217,0.158-0.752,0.275-1.604c0.101-0.734,0.226-1.52,0.376-2.355c0.15-0.835,0.317-1.554,0.501-2.155
				c0.017-0.084,0.033-0.159,0.051-0.226c0.066-0.251,0.158-0.493,0.275-0.728c0.101-0.2,0.279-0.351,0.539-0.45
				c0.259-0.101,0.521-0.151,0.789-0.151c0.2,0,0.367,0.018,0.501,0.051c0.302,0.117,0.451,0.317,0.451,0.602
				c0,0.15-0.017,0.325-0.05,0.526c-0.25,1.169-0.476,2.34-0.677,3.509c-0.15,0.836-0.31,1.679-0.476,2.531
				c-0.251,1.17-0.443,2.364-0.577,3.584c-0.083,1.271-0.154,2.531-0.213,3.785c-0.059,1.253-0.097,2.18-0.112,2.782
				c0,0.1-0.005,0.229-0.013,0.388c-0.009,0.159-0.013,0.28-0.013,0.364c-0.017,0.016-0.025,0.033-0.025,0.05
				c-0.033,0.133-0.079,0.254-0.138,0.363C62.949,104.246,62.845,104.325,62.694,104.376z M57.983,102.296
				c0.317-0.034,0.56-0.201,0.727-0.502c0.568-1.286,1.169-2.799,1.805-4.536c0.184-0.468,0.359-0.928,0.526-1.379
				c0.05-0.116,0.075-0.242,0.075-0.376v-0.1c0-0.201-0.075-0.389-0.226-0.564s-0.343-0.263-0.577-0.263
				c-0.301,0.017-0.593,0.104-0.877,0.263c-0.285,0.159-0.501,0.322-0.652,0.489c-0.953,0.902-1.504,1.988-1.654,3.258
				c-0.134,0.468-0.2,0.97-0.2,1.504v0.2c0,0.618,0.15,1.179,0.451,1.68c0.083,0.116,0.179,0.2,0.288,0.251
				C57.778,102.271,57.882,102.296,57.983,102.296z"/>
			<path d="M69.562,103.85h-0.101c-0.802,0-1.462-0.276-1.979-0.827c-0.351-0.351-0.644-0.769-0.877-1.254
				c-0.218-0.501-0.401-1.019-0.552-1.554c-0.167-0.752-0.251-1.486-0.251-2.205c0-1.521,0.451-2.883,1.354-4.086
				c0.352-0.451,0.803-0.793,1.354-1.027c0.385-0.167,0.803-0.251,1.254-0.251c0.25,0,0.492,0.042,0.727,0.126
				c0.367,0.117,0.659,0.33,0.877,0.639c0.217,0.31,0.351,0.647,0.4,1.016c0.018,0.184,0.026,0.376,0.026,0.576
				c0,0.317-0.043,0.644-0.126,0.978c-0.017,0.084-0.042,0.15-0.075,0.2c-0.034,0.117-0.071,0.222-0.112,0.313
				c-0.042,0.092-0.113,0.205-0.214,0.339c-0.283,0.435-0.643,0.793-1.077,1.077c-0.284,0.15-0.594,0.268-0.928,0.351
				c-0.217,0.067-0.451,0.101-0.701,0.101l-0.276-0.05v0.301c0,0.635,0.055,1.236,0.163,1.805c0.108,0.567,0.313,1.111,0.614,1.629
				c0.301,0.468,0.627,0.727,0.978,0.776c0.334,0,0.719-0.2,1.152-0.601l0.526-0.552c0.05-0.066,0.109-0.125,0.176-0.176
				c0.066-0.05,0.134-0.083,0.2-0.101c0.201,0,0.326,0.047,0.376,0.139s0.075,0.196,0.075,0.313v0.05
				c-0.066,0.233-0.2,0.455-0.401,0.664c-0.2,0.209-0.393,0.38-0.576,0.514C70.999,103.59,70.33,103.85,69.562,103.85z
				 M68.484,97.483c0.05,0,0.116-0.004,0.2-0.013c0.083-0.009,0.158-0.017,0.226-0.025c0.066-0.008,0.108-0.021,0.125-0.037
				c0.117-0.017,0.238-0.046,0.363-0.088c0.126-0.042,0.229-0.096,0.313-0.163c0.468-0.317,0.811-0.752,1.028-1.303
				c0.1-0.284,0.149-0.585,0.149-0.902v-0.101c0-0.233-0.05-0.438-0.149-0.614c-0.101-0.176-0.285-0.263-0.552-0.263h-0.075
				c-0.101,0-0.18,0.021-0.238,0.063s-0.13,0.104-0.213,0.188c-0.669,0.853-1.095,1.922-1.278,3.208
				c0,0.018,0.008,0.029,0.025,0.038C68.426,97.479,68.45,97.483,68.484,97.483z"/>
			<path d="M76.128,104.075c-0.602,0-1.182-0.201-1.742-0.602c-0.56-0.401-0.839-0.911-0.839-1.529l0.024-0.275
				c0.017-0.101,0.063-0.196,0.139-0.288c0.075-0.092,0.162-0.138,0.263-0.138c0.134,0,0.226,0.054,0.275,0.162
				c0.051,0.109,0.084,0.222,0.101,0.339c0.033,0.117,0.066,0.209,0.1,0.275c0.151,0.251,0.376,0.442,0.678,0.577
				c0.3,0.133,0.584,0.2,0.852,0.2s0.493-0.067,0.677-0.2c0.184-0.135,0.326-0.28,0.426-0.439c0.101-0.159,0.201-0.363,0.302-0.613
				c0-0.484-0.08-0.869-0.239-1.153c-0.158-0.284-0.346-0.552-0.563-0.802c-0.15-0.184-0.292-0.385-0.426-0.602
				c-0.084-0.117-0.209-0.259-0.376-0.427c-0.352-0.334-0.71-0.802-1.078-1.403c-0.367-0.602-0.551-1.361-0.551-2.281
				c0.066-0.918,0.4-1.662,1.002-2.23c0.602-0.567,1.312-0.852,2.131-0.852c0.284,0,0.576,0.05,0.877,0.15
				c0.484,0.184,0.844,0.51,1.078,0.978c0.233,0.468,0.351,0.961,0.351,1.479c0,0.301-0.037,0.543-0.112,0.727
				c-0.076,0.185-0.238,0.31-0.489,0.376c-0.117,0-0.205-0.054-0.263-0.163c-0.06-0.108-0.097-0.237-0.113-0.388l0.025-0.552
				c0-0.251-0.097-0.505-0.288-0.765c-0.192-0.259-0.431-0.389-0.715-0.389c-0.418,0.034-0.731,0.222-0.939,0.564
				c-0.209,0.343-0.313,0.714-0.313,1.115c0,0.334,0.063,0.618,0.188,0.853c0.126,0.233,0.28,0.459,0.464,0.677
				c0.083,0.116,0.167,0.225,0.251,0.325c0.451,0.552,0.814,1.036,1.09,1.454s0.51,0.864,0.702,1.341
				c0.191,0.476,0.271,0.923,0.238,1.341c-0.017,0.936-0.268,1.671-0.752,2.205c-0.352,0.368-0.694,0.606-1.028,0.715
				s-0.668,0.179-1.002,0.213c-0.017,0-0.034,0-0.05,0L76.128,104.075z"/>
			<path d="M87.632,103.423l-0.176-0.024c-0.4-0.067-0.668-0.222-0.802-0.464s-0.226-0.539-0.275-0.89
				c-0.034-0.117-0.067-0.242-0.101-0.376c-0.184-0.969-0.275-1.997-0.275-3.083V98.01c0-1.854,0.142-3.701,0.426-5.539
				c0.217-1.688,0.534-3.367,0.953-5.038c0.033-0.083,0.058-0.158,0.074-0.226c0.084-0.251,0.167-0.501,0.251-0.752
				c0.101-0.2,0.28-0.354,0.539-0.464c0.259-0.108,0.514-0.163,0.765-0.163c0.184,0,0.342,0.018,0.477,0.051
				c0.283,0.1,0.442,0.259,0.476,0.476c0,0.117,0,0.218,0,0.301c0,0.084-0.025,0.201-0.075,0.352
				c-0.117,0.835-0.284,1.763-0.501,2.782c-0.234,1.152-0.427,2.205-0.577,3.157c-0.033,0.284-0.087,0.937-0.163,1.955
				c-0.074,1.02-0.146,2.085-0.213,3.196s-0.1,1.851-0.1,2.218v0.101c0,0.518,0.025,1.044,0.075,1.578l0.024,0.526
				c0,0.251-0.059,0.468-0.175,0.652c-0.067,0.083-0.159,0.142-0.275,0.176C87.865,103.382,87.749,103.406,87.632,103.423z"/>
			<path d="M99.813,104.376c-0.15,0-0.325-0.018-0.526-0.051c-0.268-0.05-0.51-0.146-0.727-0.288s-0.351-0.313-0.401-0.514
				c-0.167-0.651-0.251-1.354-0.251-2.105l-0.024-0.401c0-0.868,0.051-1.721,0.15-2.556l-1.078,2.807
				c-0.167,0.485-0.418,0.94-0.751,1.366c-0.335,0.426-0.777,0.639-1.329,0.639c-0.301,0-0.635-0.075-1.003-0.226
				c-0.585-0.367-1.019-0.852-1.303-1.453c-0.351-0.752-0.526-1.57-0.526-2.456v-0.075c0-1.37,0.376-2.648,1.128-3.835
				s1.829-1.821,3.233-1.905c0.602,0,1.057,0.075,1.366,0.226c0.309,0.15,0.538,0.301,0.688,0.451
				c0.017,0.017,0.033,0.025,0.051,0.025c0-0.033,0.008-0.083,0.024-0.15c0.017-0.101,0.038-0.204,0.063-0.313
				c0.025-0.108,0.046-0.204,0.063-0.288c0.067-0.217,0.159-0.752,0.276-1.604c0.1-0.734,0.226-1.52,0.376-2.355
				c0.15-0.835,0.317-1.554,0.501-2.155c0.017-0.084,0.033-0.159,0.051-0.226c0.066-0.251,0.158-0.493,0.275-0.728
				c0.101-0.2,0.279-0.351,0.539-0.45c0.259-0.101,0.521-0.151,0.789-0.151c0.2,0,0.367,0.018,0.502,0.051
				c0.3,0.117,0.45,0.317,0.45,0.602c0,0.15-0.017,0.325-0.05,0.526c-0.251,1.169-0.477,2.34-0.677,3.509
				c-0.15,0.836-0.31,1.679-0.476,2.531c-0.251,1.17-0.443,2.364-0.577,3.584c-0.084,1.271-0.154,2.531-0.213,3.785
				c-0.059,1.253-0.097,2.18-0.112,2.782c0,0.1-0.005,0.229-0.013,0.388c-0.009,0.159-0.013,0.28-0.013,0.364
				c-0.017,0.016-0.025,0.033-0.025,0.05c-0.034,0.133-0.079,0.254-0.138,0.363C100.067,104.246,99.963,104.325,99.813,104.376z
				 M95.101,102.296c0.317-0.034,0.56-0.201,0.728-0.502c0.567-1.286,1.169-2.799,1.804-4.536c0.184-0.468,0.359-0.928,0.526-1.379
				c0.051-0.116,0.075-0.242,0.075-0.376v-0.1c0-0.201-0.075-0.389-0.226-0.564s-0.343-0.263-0.576-0.263
				c-0.301,0.017-0.593,0.104-0.877,0.263c-0.284,0.159-0.501,0.322-0.652,0.489c-0.952,0.902-1.504,1.988-1.654,3.258
				c-0.133,0.468-0.2,0.97-0.2,1.504v0.2c0,0.618,0.15,1.179,0.451,1.68c0.084,0.116,0.18,0.2,0.288,0.251
				C94.896,102.271,95,102.296,95.101,102.296z"/>
			<path d="M106.68,103.85h-0.1c-0.803,0-1.463-0.276-1.98-0.827c-0.352-0.351-0.644-0.769-0.877-1.254
				c-0.218-0.501-0.401-1.019-0.552-1.554c-0.167-0.752-0.251-1.486-0.251-2.205c0-1.521,0.451-2.883,1.354-4.086
				c0.351-0.451,0.803-0.793,1.354-1.027c0.385-0.167,0.803-0.251,1.253-0.251c0.251,0,0.493,0.042,0.728,0.126
				c0.367,0.117,0.659,0.33,0.877,0.639c0.217,0.31,0.351,0.647,0.4,1.016c0.018,0.184,0.026,0.376,0.026,0.576
				c0,0.317-0.043,0.644-0.126,0.978c-0.017,0.084-0.042,0.15-0.075,0.2c-0.034,0.117-0.071,0.222-0.112,0.313
				c-0.042,0.092-0.113,0.205-0.214,0.339c-0.284,0.435-0.643,0.793-1.077,1.077c-0.284,0.15-0.594,0.268-0.928,0.351
				c-0.218,0.067-0.451,0.101-0.701,0.101l-0.276-0.05v0.301c0,0.635,0.055,1.236,0.163,1.805c0.108,0.567,0.313,1.111,0.614,1.629
				c0.301,0.468,0.627,0.727,0.978,0.776c0.334,0,0.718-0.2,1.152-0.601l0.526-0.552c0.05-0.066,0.109-0.125,0.176-0.176
				c0.066-0.05,0.134-0.083,0.2-0.101c0.201,0,0.326,0.047,0.376,0.139s0.076,0.196,0.076,0.313v0.05
				c-0.067,0.233-0.201,0.455-0.402,0.664c-0.2,0.209-0.393,0.38-0.576,0.514C108.116,103.59,107.448,103.85,106.68,103.85z
				 M105.602,97.483c0.051,0,0.117-0.004,0.201-0.013c0.083-0.009,0.158-0.017,0.226-0.025c0.066-0.008,0.108-0.021,0.125-0.037
				c0.117-0.017,0.238-0.046,0.363-0.088c0.126-0.042,0.229-0.096,0.313-0.163c0.468-0.317,0.811-0.752,1.027-1.303
				c0.101-0.284,0.15-0.585,0.15-0.902v-0.101c0-0.233-0.05-0.438-0.15-0.614c-0.1-0.176-0.284-0.263-0.551-0.263h-0.075
				c-0.101,0-0.18,0.021-0.238,0.063s-0.13,0.104-0.213,0.188c-0.669,0.853-1.095,1.922-1.278,3.208
				c0,0.018,0.008,0.029,0.025,0.038C105.543,97.479,105.568,97.483,105.602,97.483z"/>
			<path d="M118.51,104.351h-0.125c-0.117,0-0.251-0.017-0.401-0.05c-0.251-0.051-0.485-0.15-0.702-0.301s-0.359-0.326-0.426-0.526
				c-0.15-0.769-0.226-1.529-0.226-2.281v-0.451l0.05-2.481l-1.128,2.983c-0.167,0.484-0.422,0.939-0.764,1.365
				c-0.343,0.427-0.79,0.64-1.342,0.64c-0.3,0-0.635-0.092-1.002-0.275c-0.568-0.352-0.994-0.845-1.278-1.479
				c-0.334-0.785-0.501-1.612-0.501-2.481c0-0.936,0.176-1.838,0.525-2.707c0.352-0.868,0.856-1.582,1.517-2.143
				c0.66-0.56,1.458-0.84,2.395-0.84c0.601,0,1.056,0.075,1.365,0.226s0.548,0.301,0.715,0.451c0,0.017,0.008,0.025,0.024,0.025
				c0.066-0.451,0.134-0.806,0.201-1.065c0.066-0.259,0.134-0.48,0.2-0.664c0.167-0.351,0.435-0.593,0.802-0.727
				c0.117-0.033,0.251-0.051,0.401-0.051c0.233,0,0.451,0.042,0.651,0.126c0.234,0.1,0.405,0.209,0.514,0.325
				c0.109,0.117,0.163,0.293,0.163,0.526c0,0.469-0.042,0.949-0.125,1.441c-0.084,0.493-0.185,0.982-0.301,1.467
				c-0.101,0.435-0.185,0.86-0.251,1.277l-0.2,1.354c-0.167,1.32-0.251,2.641-0.251,3.96l0.025,1.128
				c0,0.101-0.005,0.213-0.013,0.339c-0.009,0.125-0.021,0.213-0.037,0.264c0,0.016-0.009,0.041-0.025,0.074
				c-0.017,0.134-0.059,0.251-0.126,0.352C118.769,104.25,118.66,104.317,118.51,104.351z M113.723,102.221
				c0.267,0,0.501-0.159,0.701-0.477c0.636-1.37,1.287-2.966,1.955-4.787c0.15-0.385,0.293-0.761,0.427-1.128
				c0.066-0.134,0.1-0.292,0.1-0.477c0-0.15-0.054-0.321-0.163-0.514c-0.108-0.191-0.321-0.288-0.639-0.288
				c-0.268,0-0.552,0.079-0.852,0.238c-0.302,0.159-0.526,0.321-0.678,0.488c-0.969,0.886-1.537,1.964-1.704,3.233
				c-0.134,0.535-0.2,1.111-0.2,1.729c0,0.501,0.092,0.957,0.275,1.366C113.13,102.016,113.388,102.221,113.723,102.221z"/>
			<path d="M124.099,104.075c-0.601,0-1.183-0.201-1.741-0.602c-0.561-0.401-0.84-0.911-0.84-1.529l0.024-0.275
				c0.017-0.101,0.063-0.196,0.139-0.288c0.074-0.092,0.162-0.138,0.263-0.138c0.134,0,0.226,0.054,0.275,0.162
				c0.051,0.109,0.084,0.222,0.101,0.339c0.033,0.117,0.066,0.209,0.101,0.275c0.15,0.251,0.376,0.442,0.676,0.577
				c0.302,0.133,0.585,0.2,0.853,0.2s0.493-0.067,0.677-0.2c0.184-0.135,0.326-0.28,0.427-0.439c0.1-0.159,0.2-0.363,0.3-0.613
				c0-0.484-0.079-0.869-0.237-1.153c-0.159-0.284-0.348-0.552-0.564-0.802c-0.15-0.184-0.293-0.385-0.426-0.602
				c-0.084-0.117-0.209-0.259-0.376-0.427c-0.351-0.334-0.711-0.802-1.078-1.403s-0.551-1.361-0.551-2.281
				c0.066-0.918,0.4-1.662,1.002-2.23c0.602-0.567,1.312-0.852,2.131-0.852c0.284,0,0.576,0.05,0.877,0.15
				c0.484,0.184,0.844,0.51,1.078,0.978c0.233,0.468,0.351,0.961,0.351,1.479c0,0.301-0.038,0.543-0.112,0.727
				c-0.075,0.185-0.238,0.31-0.489,0.376c-0.117,0-0.205-0.054-0.263-0.163c-0.059-0.108-0.097-0.237-0.113-0.388l0.025-0.552
				c0-0.251-0.097-0.505-0.288-0.765c-0.192-0.259-0.431-0.389-0.715-0.389c-0.418,0.034-0.73,0.222-0.939,0.564
				c-0.21,0.343-0.313,0.714-0.313,1.115c0,0.334,0.063,0.618,0.188,0.853c0.126,0.233,0.28,0.459,0.464,0.677
				c0.084,0.116,0.167,0.225,0.251,0.325c0.451,0.552,0.814,1.036,1.09,1.454c0.276,0.418,0.51,0.864,0.702,1.341
				c0.191,0.476,0.271,0.923,0.238,1.341c-0.018,0.936-0.268,1.671-0.752,2.205c-0.352,0.368-0.693,0.606-1.027,0.715
				c-0.335,0.108-0.669,0.179-1.003,0.213c-0.017,0-0.033,0-0.051,0L124.099,104.075z"/>
		</g>
	</g>
</g>
</svg>
